<?xml version="1.0" encoding="UTF-8"?>
<svg version="1.1" xmlns="http://www.w3.org/2000/svg" width="575" height="309">
<path d="M0 0 C189.75 0 379.5 0 575 0 C575 101.97 575 203.94 575 309 C385.25 309 195.5 309 0 309 C0 207.03 0 105.06 0 0 Z " fill="#FEFEFE" transform="translate(0,0)"/>
<path d="M0 0 C0.87787279 0.00234117 1.75574557 0.00468233 2.66022056 0.00709444 C3.58799196 0.005641 4.51576337 0.00418756 5.47164905 0.00269008 C8.62168799 -0.00099771 11.77167937 0.00252927 14.92171806 0.00595194 C17.18638408 0.00480122 19.45104991 0.00321403 21.71571535 0.0012247 C27.97099442 -0.00297534 34.22625837 -0.00087492 40.48153752 0.00221092 C46.52456653 0.00423122 52.56759229 0.00158158 58.61062066 -0.00093645 C71.74049701 -0.00621343 84.8703685 -0.00574134 98.00024532 -0.00285754 C109.49012742 -0.0003462 120.98000774 0.00031669 132.46989006 -0.00088018 C133.23078058 -0.00095657 133.99167109 -0.00103295 134.7756189 -0.00111165 C137.86399042 -0.00142297 140.95236193 -0.00174137 144.04073345 -0.00207142 C173.03724485 -0.00513335 202.03375314 -0.00235231 231.03026406 0.00302548 C256.81598313 0.00777141 282.60169727 0.0073468 308.3874163 0.00256449 C337.32945132 -0.0027852 366.2714836 -0.00491624 395.21351904 -0.00182325 C398.29640239 -0.00150251 401.37928575 -0.00118967 404.46216911 -0.00088018 C405.60087265 -0.00076157 405.60087265 -0.00076157 406.76258029 -0.00064055 C418.24782199 0.00049896 429.73306172 -0.00083715 441.21830314 -0.00335974 C454.27195647 -0.00621243 467.32560416 -0.00551824 480.37925678 -0.00007899 C487.04656734 0.0026072 493.71387007 0.00356095 500.38118118 0.00027186 C506.47402645 -0.00268851 512.56685226 -0.00110267 518.65969574 0.00424941 C520.87433907 0.00537471 523.088984 0.00477994 525.3036263 0.00237362 C528.29305442 -0.0006276 531.28241418 0.00241123 534.27183861 0.00709444 C535.14971139 0.00475328 536.02758418 0.00241211 536.93205917 0 C542.85187925 0.01878525 542.85187925 0.01878525 543.96602958 1.13293558 C544.06483755 2.60946222 544.09682204 4.09060794 544.09884208 5.57043558 C544.10013115 6.46504496 544.10142021 7.35965433 544.10274833 8.28137308 C544.09888115 9.22238871 544.09501396 10.16340433 544.09102958 11.13293558 C544.09489677 12.07395121 544.09876396 13.01496683 544.10274833 13.98449808 C544.10145927 14.87910746 544.10017021 15.77371683 544.09884208 16.69543558 C544.09715019 17.93486918 544.09715019 17.93486918 544.09542412 19.19934183 C543.96602958 21.13293558 543.96602958 21.13293558 542.96602958 22.13293558 C540.06023261 22.23291199 537.17814115 22.26652743 534.27183861 22.25877672 C533.3440672 22.26023017 532.4162958 22.26168361 531.46041012 22.26318109 C528.31037118 22.26686888 525.1603798 22.2633419 522.01034111 22.25991923 C519.74567509 22.26106995 517.48100926 22.26265714 515.21634382 22.26464647 C508.96106475 22.2688465 502.7058008 22.26674608 496.45052165 22.26366025 C490.40749263 22.26163995 484.36446688 22.26428959 478.32143851 22.26680762 C465.19156216 22.27208459 452.06169066 22.27161251 438.93181385 22.26872871 C427.44193175 22.26621736 415.95205143 22.26555448 404.46216911 22.26675135 C403.32083333 22.26686593 403.32083333 22.26686593 402.15644027 22.26698282 C399.06806875 22.26729414 395.97969723 22.26761253 392.89132572 22.26794258 C363.89481432 22.27100452 334.89830603 22.26822348 305.90179511 22.26284569 C280.11607604 22.25809976 254.3303619 22.25852437 228.54464287 22.26330668 C199.60260785 22.26865637 170.66057557 22.2707874 141.71854013 22.26769441 C138.63565677 22.26737368 135.55277342 22.26706084 132.46989006 22.26675135 C131.33118652 22.26663273 131.33118652 22.26663273 130.16947887 22.26651172 C118.68423718 22.2653722 107.19899745 22.26670832 95.71375602 22.2692309 C82.6601027 22.27208359 69.606455 22.2713894 56.55280238 22.26595016 C49.88549183 22.26326397 43.2181891 22.26231022 36.55087799 22.26559931 C30.45803272 22.26855968 24.36520691 22.26697384 18.27236342 22.26162176 C16.0577201 22.26049645 13.84307517 22.26109123 11.62843287 22.26349755 C8.63900475 22.26649876 5.64964499 22.26345994 2.66022056 22.25877672 C1.78234778 22.26111789 0.90447499 22.26345906 0 22.26587117 C-5.91982008 22.24708592 -5.91982008 22.24708592 -7.03397042 21.13293558 C-7.13277839 19.65640894 -7.16476287 18.17526323 -7.16678292 16.69543558 C-7.16807198 15.80082621 -7.16936104 14.90621683 -7.17068917 13.98449808 C-7.16488838 12.57297465 -7.16488838 12.57297465 -7.15897042 11.13293558 C-7.1628376 10.19191996 -7.16670479 9.25090433 -7.17068917 8.28137308 C-7.1694001 7.38676371 -7.16811104 6.49215433 -7.16678292 5.57043558 C-7.16509102 4.33100199 -7.16509102 4.33100199 -7.16336495 3.06652933 C-6.87632557 -1.22281383 -3.53379545 0.01121372 0 0 Z " fill="#CD2128" transform="translate(17.033970415592194,237.86706441640854)"/>
<path d="M0 0 C1.23017453 0.00351175 1.23017453 0.00351175 2.48520106 0.00709444 C3.35219101 0.005641 4.21918096 0.00418756 5.11244333 0.00269008 C8.05572084 -0.00099732 10.99894744 0.00252909 13.94222468 0.00595194 C16.0583979 0.0048012 18.17457093 0.003214 20.29074353 0.0012247 C26.1355663 -0.00297513 31.98037288 -0.00087501 37.82519573 0.00221092 C44.11700906 0.00446216 50.4088195 0.00098679 56.70063227 -0.00176901 C68.32387449 -0.00597052 79.9471101 -0.00558972 91.57035248 -0.00285754 C102.30641676 -0.00034616 113.04247914 0.00031667 123.77854365 -0.00088018 C124.8450167 -0.00099476 124.8450167 -0.00099476 125.93303466 -0.00111165 C128.81883608 -0.00142297 131.70463749 -0.00174137 134.5904389 -0.00207142 C161.68480614 -0.00513332 188.77917005 -0.00235235 215.87353677 0.00302548 C239.96752013 0.00777141 264.06149821 0.00734679 288.15548152 0.00256449 C315.19895892 -0.00278525 342.2424334 -0.00491621 369.28591126 -0.00182325 C372.16658324 -0.00150251 375.04725522 -0.00118967 377.9279272 -0.00088018 C378.63726947 -0.0008011 379.34661174 -0.00072203 380.07744924 -0.00064055 C390.80915436 0.00049894 401.54085737 -0.00083712 412.27256221 -0.00335974 C424.4698276 -0.00621248 436.66708517 -0.00542135 448.86435014 -0.00007899 C455.09420432 0.00255923 461.32404774 0.00356107 467.55390185 0.00027186 C473.24705627 -0.00268865 478.94018988 -0.00110243 484.63334239 0.00424941 C486.70262999 0.00537465 488.77191932 0.00478008 490.84120584 0.00237362 C493.63458619 -0.00062792 496.42789339 0.00241157 499.22126979 0.00709444 C500.04138614 0.00475328 500.86150249 0.00241211 501.70647085 0 C507.23908509 0.01878525 507.23908509 0.01878525 508.35323542 1.13293558 C508.45204339 2.60946222 508.48402788 4.09060794 508.48604792 5.57043558 C508.48733699 6.46504496 508.48862605 7.35965433 508.48995417 8.28137308 C508.48608699 9.22238871 508.4822198 10.16340433 508.47823542 11.13293558 C508.48210261 12.07395121 508.4859698 13.01496683 508.48995417 13.98449808 C508.48866511 14.87910746 508.48737605 15.77371683 508.48604792 16.69543558 C508.48435603 17.93486918 508.48435603 17.93486918 508.48262995 19.19934183 C508.35323542 21.13293558 508.35323542 21.13293558 507.35323542 22.13293558 C504.6343068 22.23281061 501.94072429 22.26653988 499.22126979 22.25877672 C498.35427984 22.26023017 497.48728989 22.26168361 496.59402752 22.26318109 C493.65075001 22.26686849 490.70752341 22.26334208 487.76424617 22.25991923 C485.64807294 22.26106997 483.53189992 22.26265717 481.41572732 22.26464647 C475.57090455 22.26884629 469.72609797 22.26674618 463.88127512 22.26366025 C457.58946178 22.26140901 451.29765134 22.26488438 445.00583857 22.26764017 C433.38259636 22.27184169 421.75936075 22.27146089 410.13611837 22.26872871 C399.40005409 22.26621732 388.66399171 22.26555449 377.9279272 22.26675135 C376.86145415 22.26686593 376.86145415 22.26686593 375.77343618 22.26698282 C372.88763477 22.26729414 370.00183336 22.26761253 367.11603194 22.26794258 C340.02166471 22.27100449 312.92730079 22.26822352 285.83293407 22.26284569 C261.73895072 22.25809976 237.64497264 22.25852437 213.55098933 22.26330668 C186.50751192 22.26865641 159.46403745 22.27078738 132.42055959 22.26769441 C129.53988761 22.26737368 126.65921563 22.26706084 123.77854365 22.26675135 C123.06920138 22.26667227 122.3598591 22.26659319 121.62902161 22.26651172 C110.89731649 22.26537222 100.16561347 22.26670828 89.43390864 22.2692309 C77.23664325 22.27208365 65.03938568 22.27129252 52.84212071 22.26595016 C46.61226653 22.26331194 40.38242311 22.2623101 34.152569 22.26559931 C28.45941457 22.26855982 22.76628097 22.26697359 17.07312846 22.26162176 C15.00384086 22.26049651 12.93455152 22.26109109 10.86526501 22.26349755 C8.07188466 22.26649909 5.27857746 22.2634596 2.48520106 22.25877672 C1.25502654 22.26228847 1.25502654 22.26228847 0 22.26587117 C-5.53261424 22.24708592 -5.53261424 22.24708592 -6.64676458 21.13293558 C-6.74557255 19.65640894 -6.77755703 18.17526323 -6.77957708 16.69543558 C-6.78086614 15.80082621 -6.7821552 14.90621683 -6.78348333 13.98449808 C-6.77768255 12.57297465 -6.77768255 12.57297465 -6.77176458 11.13293558 C-6.77563176 10.19191996 -6.77949895 9.25090433 -6.78348333 8.28137308 C-6.78219426 7.38676371 -6.7809052 6.49215433 -6.77957708 5.57043558 C-6.77788518 4.33100199 -6.77788518 4.33100199 -6.77615911 3.06652933 C-6.49755818 -1.09671479 -3.47301371 0.01179215 0 0 Z " fill="#CD2128" transform="translate(16.64676457643509,193.86706441640854)"/>
<path d="M0 0 C0.74952515 0.00234117 1.4990503 0.00468233 2.27128834 0.00709444 C3.06398984 0.005641 3.85669135 0.00418756 4.67341411 0.00269008 C7.36398344 -0.00099677 10.05449707 0.00252883 12.74506611 0.00595194 C14.67974814 0.00480118 16.61442995 0.00321396 18.54911131 0.0012247 C23.89226533 -0.00297482 29.23540165 -0.00087515 34.57855576 0.00221092 C40.33048686 0.00446228 46.0824148 0.00098673 51.83434528 -0.00176901 C63.11295966 -0.00622854 74.3915674 -0.00524943 85.67018205 -0.00235637 C94.8320509 -0.00010305 103.99391788 0.0002105 113.15578693 -0.00088018 C114.45700714 -0.00103341 115.75822735 -0.00118665 117.09887847 -0.00134452 C119.74182421 -0.00166423 122.38476995 -0.00198844 125.02771568 -0.00231712 C149.13469443 -0.00509096 173.24166969 -0.00220857 197.34864787 0.00302548 C219.37495426 0.0077714 241.40125488 0.00734679 263.42756122 0.00256449 C288.15057938 -0.00278532 312.87359421 -0.00489775 337.59661287 -0.00182325 C340.23013761 -0.00150468 342.86366234 -0.00119031 345.49718708 -0.00088018 C346.79311909 -0.00072591 348.08905111 -0.00057163 349.42425379 -0.00041268 C358.58098145 0.00045275 367.73770706 -0.00101096 376.89443439 -0.00335974 C388.04500252 -0.00615693 399.1955636 -0.00542119 410.34613091 -0.00007899 C416.04131507 0.00255912 421.73648747 0.00356124 427.43167156 0.00027186 C432.63631505 -0.00268886 437.84093577 -0.00110208 443.04557717 0.00424941 C444.93720779 0.00537456 446.82884029 0.00478027 448.72046971 0.00237362 C451.27423647 -0.00062839 453.82792324 0.00241205 456.38168567 0.00709444 C457.13121082 0.00475328 457.88073598 0.00241211 458.65297401 0 C463.71233666 0.01878524 463.71233666 0.01878524 464.826487 1.13293558 C464.92529497 2.60946222 464.95727946 4.09060794 464.9592995 5.57043558 C464.96058857 6.46504496 464.96187763 7.35965433 464.96320575 8.28137308 C464.95933857 9.22238871 464.95547138 10.16340433 464.951487 11.13293558 C464.95535419 12.07395121 464.95922138 13.01496683 464.96320575 13.98449808 C464.96127216 15.32641215 464.96127216 15.32641215 464.9592995 16.69543558 C464.95817158 17.52172465 464.95704365 18.34801371 464.95588154 19.19934183 C464.826487 21.13293558 464.826487 21.13293558 463.826487 22.13293558 C461.3358418 22.23267086 458.87288259 22.26655806 456.38168567 22.25877672 C455.58898417 22.26023017 454.79628266 22.26168361 453.9795599 22.26318109 C451.28899057 22.26686793 448.59847694 22.26334234 445.9079079 22.25991923 C443.97322587 22.26106999 442.03854406 22.2626572 440.1038627 22.26464647 C434.76070868 22.26884599 429.41757236 22.26674631 424.07441825 22.26366025 C418.32248715 22.26140889 412.57055921 22.26488444 406.81862873 22.26764017 C395.54001435 22.27209971 384.2614066 22.27112059 372.98279196 22.26822753 C363.82092311 22.26597421 354.65905613 22.26566067 345.49718708 22.26675135 C344.19596687 22.26690458 342.89474666 22.26705782 341.55409554 22.26721569 C338.9111498 22.2675354 336.26820406 22.26785961 333.62525833 22.26818828 C309.51827958 22.27096212 285.41130432 22.26807973 261.30432614 22.26284569 C239.27801974 22.25809977 217.25171913 22.25852438 195.22541279 22.26330668 C170.50239463 22.26865648 145.7793798 22.27076892 121.05636114 22.26769441 C118.4228364 22.26737585 115.78931167 22.26706148 113.15578693 22.26675135 C111.85985492 22.26659707 110.5639229 22.2664428 109.22872022 22.26628385 C100.07199256 22.26541842 90.91526695 22.26688212 81.75853962 22.2692309 C70.60797149 22.27202809 59.45741041 22.27129236 48.3068431 22.26595016 C42.61165894 22.26331204 36.91648654 22.26230993 31.22130245 22.26559931 C26.01665896 22.26856003 20.81203824 22.26697324 15.60739684 22.26162176 C13.71576622 22.2604966 11.82413372 22.26109089 9.9325043 22.26349755 C7.37873754 22.26649956 4.82505077 22.26345912 2.27128834 22.25877672 C1.14700061 22.26228847 1.14700061 22.26228847 0 22.26587117 C-5.05936265 22.24708592 -5.05936265 22.24708592 -6.173513 21.13293558 C-6.27232096 19.65640894 -6.30430545 18.17526323 -6.3063255 16.69543558 C-6.30761456 15.80082621 -6.30890362 14.90621683 -6.31023175 13.98449808 C-6.30443096 12.57297465 -6.30443096 12.57297465 -6.298513 11.13293558 C-6.30238018 10.19191996 -6.30624737 9.25090433 -6.31023175 8.28137308 C-6.30894268 7.38676371 -6.30765362 6.49215433 -6.3063255 5.57043558 C-6.3046336 4.33100199 -6.3046336 4.33100199 -6.30290753 3.06652933 C-6.03502197 -0.93659072 -3.39208115 0.01259468 0 0 Z " fill="#CD2128" transform="translate(16.173512995243073,281.86706441640854)"/>
<path d="M0 0 C1.17876205 -0.00260775 2.35752411 -0.00521549 3.57200623 -0.00790226 C5.53932457 -0.00455618 5.53932457 -0.00455618 7.54638672 -0.0011425 C8.94072002 -0.00229336 10.33505302 -0.00388065 11.72938538 -0.00586975 C15.57893552 -0.0100679 19.42846106 -0.0079702 23.27801132 -0.00488353 C27.42256594 -0.00263161 31.56711616 -0.00610799 35.71166992 -0.00886345 C43.83797082 -0.01332239 51.96426251 -0.01234413 60.09056377 -0.00945081 C66.69188704 -0.00719726 73.29320771 -0.00688404 79.89453125 -0.00797462 C80.83217914 -0.00812786 81.76982702 -0.00828109 82.73588848 -0.00843897 C84.64038722 -0.00875868 86.54488595 -0.00908289 88.44938469 -0.00941156 C106.33004769 -0.01226671 124.21070556 -0.00897877 142.09136772 -0.00361119 C157.45137662 0.00085688 172.81137796 0.00008096 188.17138672 -0.00452995 C205.98576482 -0.00987509 223.80013842 -0.01199202 241.61451721 -0.00891769 C243.5122172 -0.00859912 245.40991719 -0.00828475 247.30761719 -0.00797462 C248.70836754 -0.00774321 248.70836754 -0.00774321 250.13741589 -0.00750712 C256.73484085 -0.00664179 263.33226298 -0.0081052 269.9296875 -0.01045418 C277.96395379 -0.01325171 285.99821031 -0.01251492 294.03247547 -0.00717343 C298.13580171 -0.00453578 302.23911161 -0.00353243 306.34243774 -0.00682259 C310.09265206 -0.00978425 313.84283478 -0.00819494 317.59304619 -0.00284503 C319.60541155 -0.00118406 321.61777908 -0.00447957 323.63014221 -0.00790226 C325.39828529 -0.00399064 325.39828529 -0.00399064 327.20214844 0 C328.22799042 0.00016235 329.2538324 0.0003247 330.3107605 0.00049198 C332.60107422 0.12584114 332.60107422 0.12584114 333.60107422 1.12584114 C333.69988219 2.60236778 333.73186667 4.0835135 333.73388672 5.56334114 C333.73517578 6.45795052 333.73646484 7.35255989 333.73779297 8.27427864 C333.73392578 9.21529427 333.73005859 10.15630989 333.72607422 11.12584114 C333.72994141 12.06685677 333.73380859 13.00787239 333.73779297 13.97740364 C333.73585938 15.3193177 333.73585938 15.3193177 333.73388672 16.68834114 C333.73275879 17.5146302 333.73163086 18.34091927 333.73046875 19.19224739 C333.60107422 21.12584114 333.60107422 21.12584114 332.60107422 22.12584114 C330.8036335 22.2242153 329.00227914 22.25139739 327.20214844 22.25168228 C325.43400536 22.2555939 325.43400536 22.2555939 323.63014221 22.25958455 C321.66282387 22.25623846 321.66282387 22.25623846 319.65576172 22.25282478 C318.26142842 22.25397564 316.86709542 22.25556293 315.47276306 22.25755203 C311.62321292 22.26175019 307.77368738 22.25965248 303.92413712 22.25656581 C299.7795825 22.2543139 295.63503227 22.25779028 291.49047852 22.26054573 C283.36417762 22.26500467 275.23788593 22.26402641 267.11158466 22.26113309 C260.5102614 22.25887954 253.90894073 22.25856632 247.30761719 22.25965691 C246.3699693 22.25981014 245.43232141 22.25996337 244.46625996 22.26012125 C242.56176122 22.26044096 240.65726248 22.26076517 238.75276375 22.26109384 C220.87210075 22.26394899 202.99144287 22.26066106 185.11078072 22.25529347 C169.75077182 22.2508254 154.39077048 22.25160133 139.03076172 22.25621223 C121.21638362 22.26155737 103.40201001 22.2636743 85.58763123 22.26059997 C83.68993123 22.2602814 81.79223124 22.25996703 79.89453125 22.25965691 C78.96069768 22.25950263 78.02686411 22.25934836 77.06473255 22.2591894 C70.46730759 22.25832407 63.86988546 22.25978748 57.27246094 22.26213646 C49.23819465 22.26493399 41.20393813 22.2641972 33.16967297 22.25885572 C29.06634673 22.25621806 24.96303683 22.25521471 20.85971069 22.25850487 C17.10949638 22.26146653 13.35931366 22.25987722 9.60910225 22.25452732 C7.59673689 22.25286634 5.58436936 22.25616185 3.57200623 22.25958455 C1.80386314 22.25567293 1.80386314 22.25567293 0 22.25168228 C-1.02584198 22.25151993 -2.05168396 22.25135758 -3.10861206 22.2511903 C-5.39892578 22.12584114 -5.39892578 22.12584114 -6.39892578 21.12584114 C-6.49773375 19.6493145 -6.52971824 18.16816878 -6.53173828 16.68834114 C-6.53302734 15.79373177 -6.53431641 14.89912239 -6.53564453 13.97740364 C-6.52984375 12.5658802 -6.52984375 12.5658802 -6.52392578 11.12584114 C-6.52779297 10.18482552 -6.53166016 9.24380989 -6.53564453 8.27427864 C-6.53435547 7.37966927 -6.53306641 6.48505989 -6.53173828 5.56334114 C-6.53004639 4.32390755 -6.53004639 4.32390755 -6.52832031 3.05943489 C-6.25746404 -0.98807777 -3.42255654 0.00054166 0 0 Z " fill="#CD2128" transform="translate(236.39892578125,61.87415885925293)"/>
<path d="M0 0 C1.04987642 -0.00260775 2.09975284 -0.00521549 3.18144369 -0.00790226 C4.9328144 -0.00455618 4.9328144 -0.00455618 6.71956635 -0.0011425 C7.94886446 -0.00270249 9.17816258 -0.00426248 10.44471216 -0.00586975 C13.87241509 -0.00918315 17.30006371 -0.00797048 20.72776341 -0.00488353 C24.41832627 -0.00263137 28.10888421 -0.00610812 31.79944611 -0.00886345 C39.03539905 -0.01332213 46.27134165 -0.01234425 53.50729501 -0.00945081 C59.38541078 -0.00719716 65.26352364 -0.00688409 71.14163971 -0.00797462 C72.39407899 -0.00820447 72.39407899 -0.00820447 73.67182007 -0.00843897 C75.36774981 -0.00875868 77.06367955 -0.00908289 78.75960928 -0.00941156 C94.68167296 -0.01226664 110.60373088 -0.00897889 126.52579361 -0.00361119 C140.20297692 0.00085687 153.88015174 0.00008095 167.5573349 -0.00452995 C183.42041778 -0.00987523 199.28349561 -0.01199194 215.14657927 -0.00891769 C216.83645089 -0.00859912 218.52632252 -0.00828475 220.21619415 -0.00797462 C221.04775564 -0.00782035 221.87931713 -0.00766607 222.73607746 -0.00750712 C228.61064598 -0.00664183 234.48521132 -0.00810512 240.35977936 -0.01045418 C247.51386896 -0.01325186 254.66794758 -0.0125146 261.82203591 -0.00717343 C265.47575366 -0.00453598 269.12945307 -0.00353209 272.7831707 -0.00682259 C276.73488013 -0.01032776 280.68655918 -0.00615726 284.63826752 -0.0011425 C285.80584799 -0.00337322 286.97342847 -0.00560395 288.17639017 -0.00790226 C289.22626659 -0.00529452 290.27614301 -0.00268677 291.35783386 0 C292.72800101 0.00024353 292.72800101 0.00024353 294.12584829 0.00049198 C296.17891693 0.12584114 296.17891693 0.12584114 297.17891693 1.12584114 C297.2777249 2.60236778 297.30970939 4.0835135 297.31172943 5.56334114 C297.31301849 6.45795052 297.31430756 7.35255989 297.31563568 8.27427864 C297.31176849 9.21529427 297.30790131 10.15630989 297.30391693 11.12584114 C297.30778412 12.06685677 297.31165131 13.00787239 297.31563568 13.97740364 C297.31370209 15.3193177 297.31370209 15.3193177 297.31172943 16.68834114 C297.3106015 17.5146302 297.30947357 18.34091927 297.30831146 19.19224739 C297.17891693 21.12584114 297.17891693 21.12584114 296.17891693 22.12584114 C294.57432977 22.22380847 292.96540889 22.25139656 291.35783386 22.25168228 C290.30795744 22.25429003 289.25808103 22.25689778 288.17639017 22.25958455 C287.0088097 22.25735382 285.84122922 22.2551231 284.63826752 22.25282478 C283.4089694 22.25438477 282.17967128 22.25594476 280.9131217 22.25755203 C277.48541877 22.26086543 274.05777015 22.25965276 270.63007045 22.25656581 C266.93950759 22.25431365 263.24894965 22.2577904 259.55838776 22.26054573 C252.32243481 22.26500441 245.08649221 22.26402653 237.85053885 22.26113309 C231.97242308 22.25887944 226.09431023 22.25856637 220.21619415 22.25965691 C219.38123463 22.25981014 218.54627511 22.25996337 217.68601379 22.26012125 C215.99008405 22.26044096 214.29415432 22.26076517 212.59822458 22.26109384 C196.67616091 22.26394892 180.75410298 22.26066118 164.83204025 22.25529347 C151.15485694 22.25082541 137.47768212 22.25160133 123.80049896 22.25621223 C107.93741608 22.26155751 92.07433825 22.26367422 76.2112546 22.26059997 C74.52138297 22.2602814 72.83151134 22.25996703 71.14163971 22.25965691 C70.31007822 22.25950263 69.47851673 22.25934836 68.6217564 22.2591894 C62.74718788 22.25832411 56.87262254 22.2597874 50.9980545 22.26213646 C43.84396491 22.26493414 36.68988629 22.26419688 29.53579795 22.25885572 C25.88208021 22.25621826 22.2283808 22.25521437 18.57466316 22.25850487 C14.62295373 22.26201004 10.67127468 22.25783954 6.71956635 22.25282478 C4.96819563 22.25617087 4.96819563 22.25617087 3.18144369 22.25958455 C1.60662906 22.25567293 1.60662906 22.25567293 0 22.25168228 C-1.37016714 22.25143875 -1.37016714 22.25143875 -2.76801443 22.2511903 C-4.82108307 22.12584114 -4.82108307 22.12584114 -5.82108307 21.12584114 C-5.91989104 19.6493145 -5.95187552 18.16816878 -5.95389557 16.68834114 C-5.95518463 15.79373177 -5.95647369 14.89912239 -5.95780182 13.97740364 C-5.95200104 12.5658802 -5.95200104 12.5658802 -5.94608307 11.12584114 C-5.94995026 10.18482552 -5.95381744 9.24380989 -5.95780182 8.27427864 C-5.95651276 7.37966927 -5.95522369 6.48505989 -5.95389557 5.56334114 C-5.95220367 4.32390755 -5.95220367 4.32390755 -5.9504776 3.05943489 C-5.69200064 -0.80308881 -3.31728539 0.0005896 0 0 Z " fill="#CD2128" transform="translate(235.82108306884766,105.87415885925293)"/>
<path d="M0 0 C0.86873985 -0.00260775 1.7374797 -0.00521549 2.63254499 -0.00790226 C3.59779616 -0.00567154 4.56304732 -0.00344082 5.55754852 -0.0011425 C7.08297862 -0.00348249 7.08297862 -0.00348249 8.63922548 -0.00586975 C12.07486415 -0.00988452 15.51045927 -0.00668826 18.94609833 -0.00355339 C21.39779435 -0.00490722 23.84949017 -0.00668705 26.30118561 -0.00886345 C32.28584091 -0.01296386 38.27047887 -0.01234447 44.25513351 -0.00945081 C49.1168496 -0.00719696 53.97856217 -0.00688417 58.84027863 -0.00797462 C59.53091936 -0.00812786 60.2215601 -0.00828109 60.93312934 -0.00843897 C62.33593508 -0.00875868 63.73874081 -0.00908289 65.14154655 -0.00941156 C78.31098427 -0.01226649 91.48041504 -0.00897912 104.64985162 -0.00361119 C115.96198291 0.00085686 127.27410394 0.00008093 138.58623505 -0.00452995 C151.70695715 -0.00987548 164.82767316 -0.0119918 177.94839621 -0.00891769 C179.34618473 -0.00859912 180.74397325 -0.00828475 182.14176178 -0.00797462 C182.82958954 -0.00782035 183.51741729 -0.00766607 184.22608832 -0.00750712 C189.08475057 -0.0066419 193.94340896 -0.00810495 198.80207062 -0.01045418 C205.33546834 -0.01354357 211.8688496 -0.0113597 218.40224648 -0.00555992 C220.80776245 -0.00423159 223.21328005 -0.00462766 225.61879539 -0.00682259 C228.88738343 -0.00953125 232.15590796 -0.00615646 235.42449188 -0.0011425 C236.87236863 -0.00448858 236.87236863 -0.00448858 238.34949541 -0.00790226 C239.65260518 -0.00399064 239.65260518 -0.00399064 240.98204041 0 C241.73752151 0.00016235 242.49300261 0.0003247 243.27137709 0.00049198 C244.9910202 0.12584114 244.9910202 0.12584114 245.9910202 1.12584114 C246.08982817 2.60236778 246.12181266 4.0835135 246.1238327 5.56334114 C246.12512177 6.45795052 246.12641083 7.35255989 246.12773895 8.27427864 C246.12387177 9.21529427 246.12000458 10.15630989 246.1160202 11.12584114 C246.11988739 12.06685677 246.12375458 13.00787239 246.12773895 13.97740364 C246.12580536 15.3193177 246.12580536 15.3193177 246.1238327 16.68834114 C246.12270477 17.5146302 246.12157684 18.34091927 246.12041473 19.19224739 C245.9910202 21.12584114 245.9910202 21.12584114 244.9910202 22.12584114 C243.65757323 22.22303948 242.31902517 22.25139496 240.98204041 22.25168228 C240.11330056 22.25429003 239.24456071 22.25689778 238.34949541 22.25958455 C237.38424425 22.25735382 236.41899308 22.2551231 235.42449188 22.25282478 C234.40753849 22.25438477 233.39058509 22.25594476 232.34281492 22.25755203 C228.90717625 22.2615668 225.47158114 22.25837054 222.03594208 22.25523567 C219.58424605 22.2565895 217.13255023 22.25836933 214.6808548 22.26054573 C208.6961995 22.26464614 202.71156153 22.26402675 196.7269069 22.26113309 C191.86519081 22.25887924 187.00347824 22.25856645 182.14176178 22.25965691 C181.10580068 22.25988676 181.10580068 22.25988676 180.04891106 22.26012125 C178.64610533 22.26044096 177.24329959 22.26076517 175.84049386 22.26109384 C162.67105614 22.26394877 149.50162537 22.2606614 136.33218879 22.25529347 C125.02005749 22.25082542 113.70793646 22.25160135 102.39580536 22.25621223 C89.27508325 22.26155777 76.15436724 22.26367408 63.0336442 22.26059997 C61.63585568 22.2602814 60.23806715 22.25996703 58.84027863 22.25965691 C58.15245087 22.25950263 57.46462311 22.25934836 56.75595209 22.2591894 C51.89728984 22.25832419 47.03863144 22.25978723 42.17996979 22.26213646 C35.64657207 22.26522586 29.1131908 22.26304198 22.57979393 22.2572422 C20.17427795 22.25591387 17.76876035 22.25630994 15.36324501 22.25850487 C12.09465698 22.26121353 8.82613245 22.25783874 5.55754852 22.25282478 C4.59229736 22.25505551 3.62704619 22.25728623 2.63254499 22.25958455 C1.32943522 22.25567293 1.32943522 22.25567293 0 22.25168228 C-0.7554811 22.25151993 -1.51096221 22.25135758 -2.28933668 22.2511903 C-4.0089798 22.12584114 -4.0089798 22.12584114 -5.0089798 21.12584114 C-5.10778777 19.6493145 -5.13977225 18.16816878 -5.1417923 16.68834114 C-5.14308136 15.79373177 -5.14437042 14.89912239 -5.14569855 13.97740364 C-5.13989777 12.5658802 -5.13989777 12.5658802 -5.1339798 11.12584114 C-5.13784698 10.18482552 -5.14171417 9.24380989 -5.14569855 8.27427864 C-5.14440948 7.37966927 -5.14312042 6.48505989 -5.1417923 5.56334114 C-5.1401004 4.32390755 -5.1401004 4.32390755 -5.13837433 3.05943489 C-4.89930571 -0.51306216 -3.13033345 0.00067271 0 0 Z " fill="#CD2128" transform="translate(235.00897979736328,149.87415885925293)"/>
<path d="M0 0 C0.80572228 0.00223072 1.61144457 0.00446144 2.44158268 0.00675976 C3.29111043 0.00519977 4.14063818 0.00363978 5.01590919 0.00203252 C7.88494976 -0.00198117 10.75393813 0.00121358 13.62297916 0.00434887 C15.67073949 0.002995 17.71849958 0.00121514 19.76625919 -0.00096118 C25.34460765 -0.00553713 30.92293771 -0.0037453 36.50128651 -0.0005821 C42.32513575 0.00194067 48.14898337 -0.0003958 53.97283268 -0.00196826 C63.75498076 -0.0037902 73.53712129 -0.00138302 83.31926823 0.00337231 C94.64650578 0.00881498 105.97372533 0.00705234 117.30096245 0.00154591 C127.00707656 -0.00298453 136.71318525 -0.00363611 146.41930008 -0.00101542 C152.22475511 0.00054773 158.03020167 0.00074007 163.83565617 -0.00255191 C169.29219885 -0.00542963 174.74871822 -0.00345678 180.20525837 0.00234234 C182.21408518 0.00367048 184.22291394 0.00327493 186.23174 0.00107968 C188.96170801 -0.00162974 191.69160005 0.00174672 194.42156315 0.00675976 C195.22728543 0.00452904 196.03300772 0.00229832 196.86314583 0 C202.31742308 0.01959357 202.31742308 0.01959357 203.43157291 1.13374341 C203.53038088 2.61027005 203.56236537 4.09141576 203.56438541 5.57124341 C203.56567448 6.46585278 203.56696354 7.36046216 203.56829166 8.28218091 C203.56442448 9.22319653 203.56055729 10.16421216 203.55657291 11.13374341 C203.5604401 12.07475903 203.56430729 13.01577466 203.56829166 13.98530591 C203.56635807 15.32721997 203.56635807 15.32721997 203.56438541 16.69624341 C203.56325748 17.52253247 203.56212955 18.34882153 203.56096745 19.20014966 C203.43157291 21.13374341 203.43157291 21.13374341 202.43157291 22.13374341 C199.75317239 22.23379868 197.10048872 22.26814392 194.42156315 22.26072705 C193.14727152 22.26306703 193.14727152 22.26306703 191.84723663 22.26545429 C188.97819607 22.26946798 186.10920769 22.26627323 183.24016666 22.26313794 C181.19240634 22.26449181 179.14464625 22.26627167 177.09688663 22.268448 C171.51853818 22.27302394 165.94020812 22.27123211 160.36185932 22.26806891 C154.53801007 22.26554614 148.71416246 22.26788261 142.89031315 22.26945508 C133.10816507 22.27127701 123.32602453 22.26886983 113.5438776 22.2641145 C102.21664005 22.25867183 90.8894205 22.26043447 79.56218338 22.2659409 C69.85606926 22.27047134 60.14996058 22.27112292 50.44384575 22.26850224 C44.63839072 22.26693908 38.83294416 22.26674674 33.02748966 22.27003872 C27.57094698 22.27291644 22.11442761 22.27094359 16.65788746 22.26514447 C14.64906064 22.26381633 12.64023188 22.26421188 10.63140583 22.26640713 C7.90143781 22.26911655 5.17154578 22.26574009 2.44158268 22.26072705 C1.6358604 22.26295777 0.83013811 22.26518849 0 22.26748681 C-5.45427725 22.24789324 -5.45427725 22.24789324 -6.56842709 21.13374341 C-6.66723506 19.65721677 -6.69921954 18.17607105 -6.70123959 16.69624341 C-6.70252865 15.80163403 -6.70381771 14.90702466 -6.70514584 13.98530591 C-6.69934505 12.57378247 -6.69934505 12.57378247 -6.69342709 11.13374341 C-6.69729427 10.19272778 -6.70116146 9.25171216 -6.70514584 8.28218091 C-6.70385677 7.38757153 -6.70256771 6.49296216 -6.70123959 5.57124341 C-6.69954769 4.33180981 -6.69954769 4.33180981 -6.69782162 3.06733716 C-6.42096426 -1.06985197 -3.46052443 0.01243135 0 0 Z " fill="#CD2128" transform="translate(236.56842708587646,17.866256594657898)"/>
<path d="M0 0 C0.89460937 -0.00128906 1.78921875 -0.00257812 2.7109375 -0.00390625 C3.65195313 -0.00003906 4.59296875 0.00382812 5.5625 0.0078125 C6.97402344 0.00201172 6.97402344 0.00201172 8.4140625 -0.00390625 C9.75597656 -0.00197266 9.75597656 -0.00197266 11.125 0 C11.95128906 0.00112793 12.77757812 0.00225586 13.62890625 0.00341797 C15.5625 0.1328125 15.5625 0.1328125 16.5625 1.1328125 C16.66137812 3.10478788 16.68882256 5.0803569 16.68948364 7.05480957 C16.69230347 8.34210464 16.69512329 9.62939972 16.69802856 10.95570374 C16.69608396 12.3955995 16.69403578 13.83549514 16.69189453 15.27539062 C16.69324851 16.78128604 16.69502843 18.28718111 16.69720459 19.79307556 C16.70177928 23.89420057 16.69998922 27.99530054 16.6968255 32.09642601 C16.69430209 36.37877853 16.69663939 40.66112884 16.69821167 44.94348145 C16.70003342 52.13631578 16.69762692 59.32913987 16.69287109 66.52197266 C16.68742846 74.84997584 16.68919112 83.17795454 16.6946975 91.50595713 C16.69922848 98.64309096 16.69987925 105.7802174 16.69725883 112.9173522 C16.69569597 117.18579605 16.69550253 121.45422838 16.69879532 125.72267151 C16.70167381 129.73465184 16.69969875 133.74660046 16.69390106 137.75857735 C16.69257334 139.23526011 16.69296778 140.71194552 16.69516373 142.18862724 C16.69787474 144.19602237 16.69388084 146.20342329 16.68948364 148.21081543 C16.68910662 149.33686943 16.68872959 150.46292343 16.68834114 151.62310028 C16.5625 154.1328125 16.5625 154.1328125 15.5625 155.1328125 C14.08597336 155.23162047 12.60482764 155.26360495 11.125 155.265625 C9.78308594 155.26755859 9.78308594 155.26755859 8.4140625 155.26953125 C7.47304687 155.26566406 6.53203125 155.26179687 5.5625 155.2578125 C4.62148437 155.26167969 3.68046875 155.26554688 2.7109375 155.26953125 C1.81632813 155.26824219 0.92171875 155.26695312 0 155.265625 C-0.82628906 155.26449707 -1.65257812 155.26336914 -2.50390625 155.26220703 C-4.4375 155.1328125 -4.4375 155.1328125 -5.4375 154.1328125 C-5.53637812 152.16083712 -5.56382256 150.1852681 -5.56448364 148.21081543 C-5.56730347 146.92352036 -5.57012329 145.63622528 -5.57302856 144.30992126 C-5.57108396 142.8700255 -5.56903578 141.43012986 -5.56689453 139.99023438 C-5.56824851 138.48433896 -5.57002843 136.97844389 -5.57220459 135.47254944 C-5.57677928 131.37142443 -5.57498922 127.27032446 -5.5718255 123.16919899 C-5.56930209 118.88684647 -5.57163939 114.60449616 -5.57321167 110.32214355 C-5.57503342 103.12930922 -5.57262692 95.93648513 -5.56787109 88.74365234 C-5.56242846 80.41564916 -5.56419112 72.08767046 -5.5696975 63.75966787 C-5.57422848 56.62253404 -5.57487925 49.4854076 -5.57225883 42.3482728 C-5.57069597 38.07982895 -5.57050253 33.81139662 -5.57379532 29.54295349 C-5.57667381 25.53097316 -5.57469875 21.51902454 -5.56890106 17.50704765 C-5.56757334 16.03036489 -5.56796778 14.55367948 -5.57016373 13.07699776 C-5.57287474 11.06960263 -5.56888084 9.06220171 -5.56448364 7.05480957 C-5.56410662 5.92875557 -5.56372959 4.80270157 -5.56334114 3.64252472 C-5.35179185 -0.57650759 -3.78327117 0.00516437 0 0 Z " fill="#212F64" transform="translate(191.4375,17.8671875)"/>
<path d="M0 0 C0.89460938 -0.00128906 1.78921875 -0.00257812 2.7109375 -0.00390625 C3.65195312 -0.00003906 4.59296875 0.00382812 5.5625 0.0078125 C6.97402344 0.00201172 6.97402344 0.00201172 8.4140625 -0.00390625 C9.75597656 -0.00197266 9.75597656 -0.00197266 11.125 0 C11.95128906 0.00112793 12.77757813 0.00225586 13.62890625 0.00341797 C15.5625 0.1328125 15.5625 0.1328125 16.5625 1.1328125 C16.66137812 3.10478788 16.68882256 5.0803569 16.68948364 7.05480957 C16.69230347 8.34210464 16.69512329 9.62939972 16.69802856 10.95570374 C16.69608396 12.3955995 16.69403578 13.83549514 16.69189453 15.27539062 C16.69324851 16.78128604 16.69502843 18.28718111 16.69720459 19.79307556 C16.70177928 23.89420057 16.69998922 27.99530054 16.6968255 32.09642601 C16.69430209 36.37877853 16.69663939 40.66112884 16.69821167 44.94348145 C16.70003342 52.13631578 16.69762692 59.32913987 16.69287109 66.52197266 C16.68742846 74.84997584 16.68919112 83.17795454 16.6946975 91.50595713 C16.69922848 98.64309096 16.69987925 105.7802174 16.69725883 112.9173522 C16.69569597 117.18579605 16.69550253 121.45422838 16.69879532 125.72267151 C16.70167381 129.73465184 16.69969875 133.74660046 16.69390106 137.75857735 C16.69257334 139.23526011 16.69296778 140.71194552 16.69516373 142.18862724 C16.69787474 144.19602237 16.69388084 146.20342329 16.68948364 148.21081543 C16.68910662 149.33686943 16.68872959 150.46292343 16.68834114 151.62310028 C16.5625 154.1328125 16.5625 154.1328125 15.5625 155.1328125 C14.08597336 155.23162047 12.60482764 155.26360495 11.125 155.265625 C9.78308594 155.26755859 9.78308594 155.26755859 8.4140625 155.26953125 C7.47304688 155.26566406 6.53203125 155.26179687 5.5625 155.2578125 C4.62148438 155.26167969 3.68046875 155.26554688 2.7109375 155.26953125 C1.81632812 155.26824219 0.92171875 155.26695312 0 155.265625 C-0.82628906 155.26449707 -1.65257812 155.26336914 -2.50390625 155.26220703 C-4.4375 155.1328125 -4.4375 155.1328125 -5.4375 154.1328125 C-5.53637812 152.16083712 -5.56382256 150.1852681 -5.56448364 148.21081543 C-5.56730347 146.92352036 -5.57012329 145.63622528 -5.57302856 144.30992126 C-5.57108396 142.8700255 -5.56903578 141.43012986 -5.56689453 139.99023438 C-5.56824851 138.48433896 -5.57002843 136.97844389 -5.57220459 135.47254944 C-5.57677928 131.37142443 -5.57498922 127.27032446 -5.5718255 123.16919899 C-5.56930209 118.88684647 -5.57163939 114.60449616 -5.57321167 110.32214355 C-5.57503342 103.12930922 -5.57262692 95.93648513 -5.56787109 88.74365234 C-5.56242846 80.41564916 -5.56419112 72.08767046 -5.5696975 63.75966787 C-5.57422848 56.62253404 -5.57487925 49.4854076 -5.57225883 42.3482728 C-5.57069597 38.07982895 -5.57050253 33.81139662 -5.57379532 29.54295349 C-5.57667381 25.53097316 -5.57469875 21.51902454 -5.56890106 17.50704765 C-5.56757334 16.03036489 -5.56796778 14.55367948 -5.57016373 13.07699776 C-5.57287474 11.06960263 -5.56888084 9.06220171 -5.56448364 7.05480957 C-5.56410662 5.92875557 -5.56372959 4.80270157 -5.56334114 3.64252472 C-5.35179185 -0.57650759 -3.78327117 0.00516437 0 0 Z " fill="#212F64" transform="translate(15.4375,17.8671875)"/>
<path d="M0 0 C0.89460938 -0.00128906 1.78921875 -0.00257812 2.7109375 -0.00390625 C3.65195313 -0.00003906 4.59296875 0.00382812 5.5625 0.0078125 C6.97402344 0.00201172 6.97402344 0.00201172 8.4140625 -0.00390625 C9.75597656 -0.00197266 9.75597656 -0.00197266 11.125 0 C11.95128906 0.00112793 12.77757813 0.00225586 13.62890625 0.00341797 C15.5625 0.1328125 15.5625 0.1328125 16.5625 1.1328125 C16.66102467 2.90210207 16.68882089 4.67535715 16.68948364 6.4473877 C16.69230347 7.6000563 16.69512329 8.75272491 16.69802856 9.94032288 C16.69600433 11.21620773 16.6939801 12.49209259 16.69189453 13.80664062 C16.69324856 15.15490262 16.6950285 16.50316425 16.69720459 17.85142517 C16.70177873 21.52281278 16.69998945 25.19417241 16.6968255 28.86556053 C16.6943018 32.69947767 16.69663947 36.53339234 16.69821167 40.36730957 C16.70003334 46.80688916 16.69762713 53.2464573 16.69287109 59.68603516 C16.68742848 67.14153413 16.68919114 74.59700576 16.6946975 82.05250406 C16.69922871 88.44229826 16.69987914 94.8320842 16.69725883 101.22187948 C16.6956961 105.04319298 16.69550217 108.8644936 16.69879532 112.68580627 C16.70167416 116.27755075 16.69969812 119.86925981 16.69390106 123.46100044 C16.69193793 125.41576717 16.69492727 127.37053687 16.69802856 129.32530212 C16.69379883 131.05430504 16.69379883 131.05430504 16.68948364 132.8182373 C16.68910662 133.8263018 16.68872959 134.8343663 16.68834114 135.87297821 C16.5625 138.1328125 16.5625 138.1328125 15.5625 139.1328125 C14.08597336 139.23162047 12.60482764 139.26360495 11.125 139.265625 C9.78308594 139.26755859 9.78308594 139.26755859 8.4140625 139.26953125 C7.47304687 139.26566406 6.53203125 139.26179687 5.5625 139.2578125 C4.62148437 139.26167969 3.68046875 139.26554688 2.7109375 139.26953125 C1.81632812 139.26824219 0.92171875 139.26695312 0 139.265625 C-0.82628906 139.26449707 -1.65257813 139.26336914 -2.50390625 139.26220703 C-4.4375 139.1328125 -4.4375 139.1328125 -5.4375 138.1328125 C-5.53602467 136.36352293 -5.56382089 134.59026785 -5.56448364 132.8182373 C-5.56730347 131.6655687 -5.57012329 130.51290009 -5.57302856 129.32530212 C-5.57100433 128.04941727 -5.5689801 126.77353241 -5.56689453 125.45898438 C-5.56824856 124.11072238 -5.5700285 122.76246075 -5.57220459 121.41419983 C-5.57677873 117.74281222 -5.57498945 114.07145259 -5.5718255 110.40006447 C-5.5693018 106.56614733 -5.57163947 102.73223266 -5.57321167 98.89831543 C-5.57503334 92.45873584 -5.57262713 86.0191677 -5.56787109 79.57958984 C-5.56242848 72.12409087 -5.56419114 64.66861924 -5.5696975 57.21312094 C-5.57422871 50.82332674 -5.57487914 44.4335408 -5.57225883 38.04374552 C-5.5706961 34.22243202 -5.57050217 30.4011314 -5.57379532 26.57981873 C-5.57667416 22.98807425 -5.57469812 19.39636519 -5.56890106 15.80462456 C-5.56693793 13.84985783 -5.56992727 11.89508813 -5.57302856 9.94032288 C-5.57020874 8.78765427 -5.56738892 7.63498566 -5.56448364 6.4473877 C-5.56410662 5.4393232 -5.56372959 4.4312587 -5.56334114 3.39264679 C-5.34013331 -0.61568226 -3.55126769 0.00484767 0 0 Z " fill="#212F64" transform="translate(103.4375,33.8671875)"/>
<path d="M0 0 C0.89460937 -0.00128906 1.78921875 -0.00257812 2.7109375 -0.00390625 C3.65195313 -0.00003906 4.59296875 0.00382812 5.5625 0.0078125 C6.97402344 0.00201172 6.97402344 0.00201172 8.4140625 -0.00390625 C9.75597656 -0.00197266 9.75597656 -0.00197266 11.125 0 C11.95128906 0.00112793 12.77757812 0.00225586 13.62890625 0.00341797 C15.5625 0.1328125 15.5625 0.1328125 16.5625 1.1328125 C16.66064195 2.72471223 16.68881906 4.32097157 16.68948364 5.91589355 C16.69230347 6.95076401 16.69512329 7.98563446 16.69802856 9.05186462 C16.69600433 10.19683914 16.6939801 11.34181366 16.69189453 12.52148438 C16.69364685 13.71971329 16.69539917 14.9179422 16.69720459 16.15248108 C16.70086275 19.44786042 16.6999897 22.74317734 16.6968255 26.03855324 C16.69430149 29.48008943 16.69663956 32.92162288 16.69821167 36.36315918 C16.70003325 42.14364097 16.69762737 47.92410999 16.69287109 53.70458984 C16.68742849 60.39664784 16.68919116 67.08867537 16.6946975 73.78073263 C16.69922897 79.5166047 16.69987901 85.25246758 16.69725883 90.98834085 C16.69569624 94.41841538 16.69550179 97.84847557 16.69879532 101.27854919 C16.70220843 105.10042514 16.69748373 108.9222667 16.69189453 112.74414062 C16.69391876 113.88911514 16.69594299 115.03408966 16.69802856 116.21376038 C16.69379883 117.76606606 16.69379883 117.76606606 16.68948364 119.34973145 C16.68910662 120.25455513 16.68872959 121.15937881 16.68834114 122.0916214 C16.5625 124.1328125 16.5625 124.1328125 15.5625 125.1328125 C14.08597336 125.23162047 12.60482764 125.26360495 11.125 125.265625 C9.78308594 125.26755859 9.78308594 125.26755859 8.4140625 125.26953125 C7.00253906 125.26373047 7.00253906 125.26373047 5.5625 125.2578125 C4.15097656 125.26361328 4.15097656 125.26361328 2.7109375 125.26953125 C1.81632813 125.26824219 0.92171875 125.26695312 0 125.265625 C-0.82628906 125.26449707 -1.65257812 125.26336914 -2.50390625 125.26220703 C-4.4375 125.1328125 -4.4375 125.1328125 -5.4375 124.1328125 C-5.53564195 122.54091277 -5.56381906 120.94465343 -5.56448364 119.34973145 C-5.56730347 118.31486099 -5.57012329 117.27999054 -5.57302856 116.21376038 C-5.57100433 115.06878586 -5.5689801 113.92381134 -5.56689453 112.74414062 C-5.56864685 111.54591171 -5.57039917 110.3476828 -5.57220459 109.11314392 C-5.57586275 105.81776458 -5.5749897 102.52244766 -5.5718255 99.22707176 C-5.56930149 95.78553557 -5.57163956 92.34400212 -5.57321167 88.90246582 C-5.57503325 83.12198403 -5.57262737 77.34151501 -5.56787109 71.56103516 C-5.56242849 64.86897716 -5.56419116 58.17694963 -5.5696975 51.48489237 C-5.57422897 45.7490203 -5.57487901 40.01315742 -5.57225883 34.27728415 C-5.57069624 30.84720962 -5.57050179 27.41714943 -5.57379532 23.98707581 C-5.57720843 20.16519986 -5.57248373 16.3433583 -5.56689453 12.52148438 C-5.56891876 11.37650986 -5.57094299 10.23153534 -5.57302856 9.05186462 C-5.57020874 8.01699417 -5.56738892 6.98212372 -5.56448364 5.91589355 C-5.56410662 5.01106987 -5.56372959 4.10624619 -5.56334114 3.1740036 C-5.32772444 -0.64778872 -3.33805222 0.00455662 0 0 Z " fill="#212F64" transform="translate(147.4375,47.8671875)"/>
<path d="M0 0 C0.89460938 -0.00128906 1.78921875 -0.00257812 2.7109375 -0.00390625 C3.65195312 -0.00003906 4.59296875 0.00382812 5.5625 0.0078125 C6.97402344 0.00201172 6.97402344 0.00201172 8.4140625 -0.00390625 C9.75597656 -0.00197266 9.75597656 -0.00197266 11.125 0 C11.95128906 0.00112793 12.77757813 0.00225586 13.62890625 0.00341797 C15.5625 0.1328125 15.5625 0.1328125 16.5625 1.1328125 C16.66317034 4.23252014 16.698643 7.30998921 16.69189453 10.41015625 C16.69364685 11.38405304 16.69539917 12.35794983 16.69720459 13.36135864 C16.70162499 16.59769444 16.69868445 19.8339761 16.6953125 23.0703125 C16.69598549 25.30851248 16.69695546 27.54671238 16.69821167 29.78491211 C16.6996889 34.48259169 16.69753329 39.1802523 16.69287109 43.87792969 C16.6871738 49.91441864 16.69045267 55.95086314 16.69644356 61.98735046 C16.7000485 66.61112811 16.69891089 71.23489514 16.69631577 75.8586731 C16.69564631 78.08513392 16.69647556 80.3115957 16.69879532 82.53805542 C16.70132074 85.64388605 16.6974828 88.7496436 16.69189453 91.85546875 C16.69391876 92.78537628 16.69594299 93.71528381 16.69802856 94.67337036 C16.67676227 101.01855023 16.67676227 101.01855023 15.5625 102.1328125 C14.08597336 102.23162047 12.60482764 102.26360495 11.125 102.265625 C9.78308594 102.26755859 9.78308594 102.26755859 8.4140625 102.26953125 C7.00253906 102.26373047 7.00253906 102.26373047 5.5625 102.2578125 C4.15097656 102.26361328 4.15097656 102.26361328 2.7109375 102.26953125 C1.81632812 102.26824219 0.92171875 102.26695312 0 102.265625 C-0.82628906 102.26449707 -1.65257812 102.26336914 -2.50390625 102.26220703 C-4.4375 102.1328125 -4.4375 102.1328125 -5.4375 101.1328125 C-5.53817034 98.03310486 -5.573643 94.95563579 -5.56689453 91.85546875 C-5.56864685 90.88157196 -5.57039917 89.90767517 -5.57220459 88.90426636 C-5.57662499 85.66793056 -5.57368445 82.4316489 -5.5703125 79.1953125 C-5.57098549 76.95711252 -5.57195546 74.71891262 -5.57321167 72.48071289 C-5.5746889 67.78303331 -5.57253329 63.0853727 -5.56787109 58.38769531 C-5.5621738 52.35120636 -5.56545267 46.31476186 -5.57144356 40.27827454 C-5.5750485 35.65449689 -5.57391089 31.03072986 -5.57131577 26.4069519 C-5.57064631 24.18049108 -5.57147556 21.9540293 -5.57379532 19.72756958 C-5.57632074 16.62173895 -5.5724828 13.5159814 -5.56689453 10.41015625 C-5.56891876 9.48024872 -5.57094299 8.55034119 -5.57302856 7.59225464 C-5.54760799 0.00757279 -5.54760799 0.00757279 0 0 Z " fill="#212F64" transform="translate(59.4375,70.8671875)"/>
</svg>
